<svg version="1.1" xmlns="http://www.w3.org/2000/svg" xmlns:xlink="http://www.w3.org/1999/xlink" width="1084" height="924"><defs/><g><g transform="translate(-38,-118) scale(1,1)"><rect fill="#C0C0C0" stroke="none" x="199" y="135" width="920" height="904" opacity="0.2"/></g><g transform="translate(-38,-118) scale(1,1)"><rect fill="#ffffff" stroke="none" x="192" y="128" width="920" height="904"/></g><g transform="translate(-38,-118) scale(1,1)"><path fill="none" stroke="#000000" d="M 192 128 L 1112 128 L 1112 1032 L 192 1032 L 192 128 Z Z" stroke-miterlimit="10"/></g><g transform="translate(-38,-118) scale(1,1)"><g><path fill="none" stroke="none"/><text fill="#000000" stroke="none" font-family="Arial" font-size="13px" font-style="normal" font-weight="bold" text-decoration="none" x="628.16455078125" y="146">LeapHit</text></g></g><g transform="translate(-38,-118) scale(1,1)"><path fill="#ffffff" stroke="none" d="M 92.60661594460227 641.6800000000001 C 92.60661594460227 636.8861679360001 96.49245826954773 633 101.285888671875 633 C 106.07931907420227 633 109.96516139914773 636.8861679360001 109.96516139914773 641.6800000000001 C 109.96516139914773 646.473832064 106.07931907420227 650.36 101.285888671875 650.36 C 96.49245826954773 650.36 92.60661594460227 646.473832064 92.60661594460227 641.6800000000001 Z"/></g><g transform="translate(-38,-118) scale(1,1)"><path fill="none" stroke="#000000" d="M 92.60661594460227 641.6800000000001 C 92.60661594460227 636.8861679360001 96.49245826954773 633 101.285888671875 633 C 106.07931907420227 633 109.96516139914773 636.8861679360001 109.96516139914773 641.6800000000001 C 109.96516139914773 646.473832064 106.07931907420227 650.36 101.285888671875 650.36 C 96.49245826954773 650.36 92.60661594460227 646.473832064 92.60661594460227 641.6800000000001 Z" stroke-miterlimit="10"/></g><g transform="translate(-38,-118) scale(1,1)"><path fill="none" stroke="#000000" d="M 101.285888671875 650.36 L 101.285888671875 667.64" stroke-miterlimit="10"/></g><g transform="translate(-38,-118) scale(1,1)"><path fill="none" stroke="#000000" d="M 92.09607049005682 656.84 L 110.47570685369318 656.84" stroke-miterlimit="10"/></g><g transform="translate(-38,-118) scale(1,1)"><path fill="none" stroke="#000000" d="M 101.285888671875 667.64 L 88.52225230823863 685" stroke-miterlimit="10"/></g><g transform="translate(-38,-118) scale(1,1)"><path fill="none" stroke="#000000" d="M 101.285888671875 667.64 L 114.04952503551137 685" stroke-miterlimit="10"/></g><g transform="translate(-38,-118) scale(1,1)"><g><path fill="none" stroke="none"/><text fill="#000000" stroke="none" font-family="Arial" font-size="13px" font-style="normal" font-weight="bold" text-decoration="none" x="69.5" y="704">Utilisateur</text></g></g><g transform="translate(-38,-118) scale(1,1)"><path fill="#C0C0C0" stroke="none" d="M 735 395.5 C 735 375.3416048 767.2354944 359 807 359 C 846.7645056 359 879 375.3416048 879 395.5 C 879 415.6583952 846.7645056 432 807 432 C 767.2354944 432 735 415.6583952 735 395.5 Z" opacity="0.2"/></g><g transform="translate(-38,-118) scale(1,1)"><path fill="#ffffff" stroke="none" d="M 728 388.5 C 728 368.3416048 760.2354944 352 800 352 C 839.7645056 352 872 368.3416048 872 388.5 C 872 408.6583952 839.7645056 425 800 425 C 760.2354944 425 728 408.6583952 728 388.5 Z"/></g><g transform="translate(-38,-118) scale(1,1)"><path fill="none" stroke="#000000" d="M 728 388.5 C 728 368.3416048 760.2354944 352 800 352 C 839.7645056 352 872 368.3416048 872 388.5 C 872 408.6583952 839.7645056 425 800 425 C 760.2354944 425 728 408.6583952 728 388.5 Z" stroke-miterlimit="10"/></g><g transform="translate(-38,-118) scale(1,1)"><g><path fill="none" stroke="none"/><text fill="#000000" stroke="none" font-family="Arial" font-size="13px" font-style="normal" font-weight="bold" text-decoration="none" x="755.575927734375" y="387.5">Pourvoir jouer</text><text fill="#000000" stroke="none" font-family="Arial" font-size="13px" font-style="normal" font-weight="bold" text-decoration="none" x="775.44091796875" y="400.5">en ligne</text></g></g><g transform="translate(-38,-118) scale(1,1)"><path fill="#C0C0C0" stroke="none" d="M 922 395.5 C 922 375.3416048 954.2354944 359 994 359 C 1033.7645056 359 1066 375.3416048 1066 395.5 C 1066 415.6583952 1033.7645056 432 994 432 C 954.2354944 432 922 415.6583952 922 395.5 Z" opacity="0.2"/></g><g transform="translate(-38,-118) scale(1,1)"><path fill="#ffffff" stroke="none" d="M 915 388.5 C 915 368.3416048 947.2354944 352 987 352 C 1026.7645056 352 1059 368.3416048 1059 388.5 C 1059 408.6583952 1026.7645056 425 987 425 C 947.2354944 425 915 408.6583952 915 388.5 Z"/></g><g transform="translate(-38,-118) scale(1,1)"><path fill="none" stroke="#000000" d="M 915 388.5 C 915 368.3416048 947.2354944 352 987 352 C 1026.7645056 352 1059 368.3416048 1059 388.5 C 1059 408.6583952 1026.7645056 425 987 425 C 947.2354944 425 915 408.6583952 915 388.5 Z" stroke-miterlimit="10"/></g><g transform="translate(-38,-118) scale(1,1)"><g><path fill="none" stroke="none"/><text fill="#000000" stroke="none" font-family="Arial" font-size="13px" font-style="normal" font-weight="bold" text-decoration="none" x="945.10546875" y="387.5">Pouvoir jouer</text><text fill="#000000" stroke="none" font-family="Arial" font-size="13px" font-style="normal" font-weight="bold" text-decoration="none" x="955.94091796875" y="400.5">hors ligne</text></g></g><g transform="translate(-38,-118) scale(1,1)"><path fill="#C0C0C0" stroke="none" d="M 299 467 C 299 449.3268864 361.9039856 435 439.5 435 C 517.0960144000001 435 580 449.3268864 580 467 C 580 484.6731136 517.0960144000001 499 439.5 499 C 361.9039856 499 299 484.6731136 299 467 Z" opacity="0.2"/></g><g transform="translate(-38,-118) scale(1,1)"><path fill="#ffffff" stroke="none" d="M 292 460 C 292 442.3268864 354.9039856 428 432.5 428 C 510.0960144 428 573 442.3268864 573 460 C 573 477.6731136 510.0960144 492 432.5 492 C 354.9039856 492 292 477.6731136 292 460 Z"/></g><g transform="translate(-38,-118) scale(1,1)"><path fill="none" stroke="#000000" d="M 292 460 C 292 442.3268864 354.9039856 428 432.5 428 C 510.0960144 428 573 442.3268864 573 460 C 573 477.6731136 510.0960144 492 432.5 492 C 354.9039856 492 292 477.6731136 292 460 Z" stroke-miterlimit="10"/></g><g transform="translate(-38,-118) scale(1,1)"><g><path fill="none" stroke="none"/><text fill="#000000" stroke="none" font-family="Arial" font-size="13px" font-style="normal" font-weight="bold" text-decoration="none" x="370.016845703125" y="465.5">Pouvoir jouer au jeu</text></g></g><g transform="translate(-38,-118) scale(1,1)"><path fill="#C0C0C0" stroke="none" d="M 299 875 C 299 857.3268864 361.9039856 843 439.5 843 C 517.0960144000001 843 580 857.3268864 580 875 C 580 892.6731136 517.0960144000001 907 439.5 907 C 361.9039856 907 299 892.6731136 299 875 Z" opacity="0.2"/></g><g transform="translate(-38,-118) scale(1,1)"><path fill="#ffffff" stroke="none" d="M 292 868 C 292 850.3268864 354.9039856 836 432.5 836 C 510.0960144 836 573 850.3268864 573 868 C 573 885.6731136 510.0960144 900 432.5 900 C 354.9039856 900 292 885.6731136 292 868 Z"/></g><g transform="translate(-38,-118) scale(1,1)"><path fill="none" stroke="#000000" d="M 292 868 C 292 850.3268864 354.9039856 836 432.5 836 C 510.0960144 836 573 850.3268864 573 868 C 573 885.6731136 510.0960144 900 432.5 900 C 354.9039856 900 292 885.6731136 292 868 Z" stroke-miterlimit="10"/></g><g transform="translate(-38,-118) scale(1,1)"><g><path fill="none" stroke="none"/><text fill="#000000" stroke="none" font-family="Arial" font-size="13px" font-style="normal" font-weight="bold" text-decoration="none" x="374.33642578125" y="873.5">Acquérir des skins</text></g></g><g transform="translate(-38,-118) scale(1,1)"><path fill="#C0C0C0" stroke="none" d="M 343 562 C 343 547.0883104 385.9806592 535 439 535 C 492.0193408 535 535 547.0883104 535 562 C 535 576.9116896 492.0193408 589 439 589 C 385.9806592 589 343 576.9116896 343 562 Z" opacity="0.2"/></g><g transform="translate(-38,-118) scale(1,1)"><path fill="#ffffff" stroke="none" d="M 336 555 C 336 540.0883104 378.9806592 528 432 528 C 485.0193408 528 528 540.0883104 528 555 C 528 569.9116896 485.0193408 582 432 582 C 378.9806592 582 336 569.9116896 336 555 Z"/></g><g transform="translate(-38,-118) scale(1,1)"><path fill="none" stroke="#000000" d="M 336 555 C 336 540.0883104 378.9806592 528 432 528 C 485.0193408 528 528 540.0883104 528 555 C 528 569.9116896 485.0193408 582 432 582 C 378.9806592 582 336 569.9116896 336 555 Z" stroke-miterlimit="10"/></g><g transform="translate(-38,-118) scale(1,1)"><g><path fill="none" stroke="none"/><text fill="#000000" stroke="none" font-family="Arial" font-size="13px" font-style="normal" font-weight="bold" text-decoration="none" x="372.763671875" y="560.5">Jouer avec un outil</text></g></g><g transform="translate(-38,-118) scale(1,1)"><path fill="#C0C0C0" stroke="none" d="M 299 365 C 299 347.3268864 361.9039856 333 439.5 333 C 517.0960144000001 333 580 347.3268864 580 365 C 580 382.6731136 517.0960144000001 397 439.5 397 C 361.9039856 397 299 382.6731136 299 365 Z" opacity="0.2"/></g><g transform="translate(-38,-118) scale(1,1)"><path fill="#ffffff" stroke="none" d="M 292 358 C 292 340.3268864 354.9039856 326 432.5 326 C 510.0960144 326 573 340.3268864 573 358 C 573 375.6731136 510.0960144 390 432.5 390 C 354.9039856 390 292 375.6731136 292 358 Z"/></g><g transform="translate(-38,-118) scale(1,1)"><path fill="none" stroke="#000000" d="M 292 358 C 292 340.3268864 354.9039856 326 432.5 326 C 510.0960144 326 573 340.3268864 573 358 C 573 375.6731136 510.0960144 390 432.5 390 C 354.9039856 390 292 375.6731136 292 358 Z" stroke-miterlimit="10"/></g><g transform="translate(-38,-118) scale(1,1)"><g><path fill="none" stroke="none"/><text fill="#000000" stroke="none" font-family="Arial" font-size="13px" font-style="normal" font-weight="bold" text-decoration="none" x="380.122314453125" y="363.5">Ajouter des amis</text></g></g><g transform="translate(-38,-118) scale(1,1)"><path fill="#C0C0C0" stroke="none" d="M 343 243 C 343 227.5360256 385.9806592 215 439 215 C 492.0193408 215 535 227.5360256 535 243 C 535 258.4639744 492.0193408 271 439 271 C 385.9806592 271 343 258.4639744 343 243 Z" opacity="0.2"/></g><g transform="translate(-38,-118) scale(1,1)"><path fill="#ffffff" stroke="none" d="M 336 236 C 336 220.5360256 378.9806592 208 432 208 C 485.0193408 208 528 220.5360256 528 236 C 528 251.4639744 485.0193408 264 432 264 C 378.9806592 264 336 251.4639744 336 236 Z"/></g><g transform="translate(-38,-118) scale(1,1)"><path fill="none" stroke="#000000" d="M 336 236 C 336 220.5360256 378.9806592 208 432 208 C 485.0193408 208 528 220.5360256 528 236 C 528 251.4639744 485.0193408 264 432 264 C 378.9806592 264 336 251.4639744 336 236 Z" stroke-miterlimit="10"/></g><g transform="translate(-38,-118) scale(1,1)"><g><path fill="none" stroke="none"/><text fill="#000000" stroke="none" font-family="Arial" font-size="13px" font-style="normal" font-weight="bold" text-decoration="none" x="377.921142578125" y="235">Tchatter avec ses</text><text fill="#000000" stroke="none" font-family="Arial" font-size="13px" font-style="normal" font-weight="bold" text-decoration="none" x="417.1845703125" y="248">amis</text></g></g><g transform="translate(-38,-118) scale(1,1)"><path fill="#C0C0C0" stroke="none" d="M 575 281 C 575 266.6405952 617.9806592 255 671 255 C 724.0193408 255 767 266.6405952 767 281 C 767 295.3594048 724.0193408 307 671 307 C 617.9806592 307 575 295.3594048 575 281 Z" opacity="0.2"/></g><g transform="translate(-38,-118) scale(1,1)"><path fill="#ffffff" stroke="none" d="M 568 274 C 568 259.6405952 610.9806592 248 664 248 C 717.0193408 248 760 259.6405952 760 274 C 760 288.3594048 717.0193408 300 664 300 C 610.9806592 300 568 288.3594048 568 274 Z"/></g><g transform="translate(-38,-118) scale(1,1)"><path fill="none" stroke="#000000" d="M 568 274 C 568 259.6405952 610.9806592 248 664 248 C 717.0193408 248 760 259.6405952 760 274 C 760 288.3594048 717.0193408 300 664 300 C 610.9806592 300 568 288.3594048 568 274 Z" stroke-miterlimit="10"/></g><g transform="translate(-38,-118) scale(1,1)"><g><path fill="none" stroke="none"/><text fill="#000000" stroke="none" font-family="Arial" font-size="13px" font-style="normal" font-weight="bold" text-decoration="none" x="617.3828125" y="273">Jouer avec ses</text><text fill="#000000" stroke="none" font-family="Arial" font-size="13px" font-style="normal" font-weight="bold" text-decoration="none" x="649.1845703125" y="286">amis</text></g></g><g transform="translate(-38,-118) scale(1,1)"><path fill="#C0C0C0" stroke="none" d="M 299 977 C 299 959.3268864 361.9039856 945 439.5 945 C 517.0960144000001 945 580 959.3268864 580 977 C 580 994.6731136 517.0960144000001 1009 439.5 1009 C 361.9039856 1009 299 994.6731136 299 977 Z" opacity="0.2"/></g><g transform="translate(-38,-118) scale(1,1)"><path fill="#ffffff" stroke="none" d="M 292 970 C 292 952.3268864 354.9039856 938 432.5 938 C 510.0960144 938 573 952.3268864 573 970 C 573 987.6731136 510.0960144 1002 432.5 1002 C 354.9039856 1002 292 987.6731136 292 970 Z"/></g><g transform="translate(-38,-118) scale(1,1)"><path fill="none" stroke="#000000" d="M 292 970 C 292 952.3268864 354.9039856 938 432.5 938 C 510.0960144 938 573 952.3268864 573 970 C 573 987.6731136 510.0960144 1002 432.5 1002 C 354.9039856 1002 292 987.6731136 292 970 Z" stroke-miterlimit="10"/></g><g transform="translate(-38,-118) scale(1,1)"><g><path fill="none" stroke="none"/><text fill="#000000" stroke="none" font-family="Arial" font-size="13px" font-style="normal" font-weight="bold" text-decoration="none" x="367.13818359375" y="975.5">Modifier son  pseudo</text></g></g><g transform="translate(-38,-118) scale(1,1)"><path fill="#C0C0C0" stroke="none" d="M 299 671 C 299 653.3268864 361.9039856 639 439.5 639 C 517.0960144000001 639 580 653.3268864 580 671 C 580 688.6731136 517.0960144000001 703 439.5 703 C 361.9039856 703 299 688.6731136 299 671 Z" opacity="0.2"/></g><g transform="translate(-38,-118) scale(1,1)"><path fill="#ffffff" stroke="none" d="M 292 664 C 292 646.3268864 354.9039856 632 432.5 632 C 510.0960144 632 573 646.3268864 573 664 C 573 681.6731136 510.0960144 696 432.5 696 C 354.9039856 696 292 681.6731136 292 664 Z"/></g><g transform="translate(-38,-118) scale(1,1)"><path fill="none" stroke="#000000" d="M 292 664 C 292 646.3268864 354.9039856 632 432.5 632 C 510.0960144 632 573 646.3268864 573 664 C 573 681.6731136 510.0960144 696 432.5 696 C 354.9039856 696 292 681.6731136 292 664 Z" stroke-miterlimit="10"/></g><g transform="translate(-38,-118) scale(1,1)"><g><path fill="none" stroke="none"/><text fill="#000000" stroke="none" font-family="Arial" font-size="13px" font-style="normal" font-weight="bold" text-decoration="none" x="353.37646484375" y="669.5">Observer ses statistiques</text></g></g><g transform="translate(-38,-118) scale(1,1)"><path fill="#C0C0C0" stroke="none" d="M 935 655.5 C 935 635.3416048 967.2354944 619 1007 619 C 1046.7645056 619 1079 635.3416048 1079 655.5 C 1079 675.6583952 1046.7645056 692 1007 692 C 967.2354944 692 935 675.6583952 935 655.5 Z" opacity="0.2"/></g><g transform="translate(-38,-118) scale(1,1)"><path fill="#ffffff" stroke="none" d="M 928 648.5 C 928 628.3416048 960.2354944 612 1000 612 C 1039.7645056 612 1072 628.3416048 1072 648.5 C 1072 668.6583952 1039.7645056 685 1000 685 C 960.2354944 685 928 668.6583952 928 648.5 Z"/></g><g transform="translate(-38,-118) scale(1,1)"><path fill="none" stroke="#000000" d="M 928 648.5 C 928 628.3416048 960.2354944 612 1000 612 C 1039.7645056 612 1072 628.3416048 1072 648.5 C 1072 668.6583952 1039.7645056 685 1000 685 C 960.2354944 685 928 668.6583952 928 648.5 Z" stroke-miterlimit="10"/></g><g transform="translate(-38,-118) scale(1,1)"><g><path fill="none" stroke="none"/><text fill="#000000" stroke="none" font-family="Arial" font-size="13px" font-style="normal" font-weight="bold" text-decoration="none" x="966.03369140625" y="641">Jouer avec</text><text fill="#000000" stroke="none" font-family="Arial" font-size="13px" font-style="normal" font-weight="bold" text-decoration="none" x="971.46728515625" y="654">son Leap</text><text fill="#000000" stroke="none" font-family="Arial" font-size="13px" font-style="normal" font-weight="bold" text-decoration="none" x="978.70361328125" y="667">Motion</text></g></g><g transform="translate(-38,-118) scale(1,1)"><path fill="#C0C0C0" stroke="none" d="M 783 655.5 C 783 635.3416048 815.2354944 619 855 619 C 894.7645056 619 927 635.3416048 927 655.5 C 927 675.6583952 894.7645056 692 855 692 C 815.2354944 692 783 675.6583952 783 655.5 Z" opacity="0.2"/></g><g transform="translate(-38,-118) scale(1,1)"><path fill="#ffffff" stroke="none" d="M 776 648.5 C 776 628.3416048 808.2354944 612 848 612 C 887.7645056 612 920 628.3416048 920 648.5 C 920 668.6583952 887.7645056 685 848 685 C 808.2354944 685 776 668.6583952 776 648.5 Z"/></g><g transform="translate(-38,-118) scale(1,1)"><path fill="none" stroke="#000000" d="M 776 648.5 C 776 628.3416048 808.2354944 612 848 612 C 887.7645056 612 920 628.3416048 920 648.5 C 920 668.6583952 887.7645056 685 848 685 C 808.2354944 685 776 668.6583952 776 648.5 Z" stroke-miterlimit="10"/></g><g transform="translate(-38,-118) scale(1,1)"><g><path fill="none" stroke="none"/><text fill="#000000" stroke="none" font-family="Arial" font-size="13px" font-style="normal" font-weight="bold" text-decoration="none" x="804.997802734375" y="647.5">Jouer avec sa</text><text fill="#000000" stroke="none" font-family="Arial" font-size="13px" font-style="normal" font-weight="bold" text-decoration="none" x="825.23095703125" y="660.5">caméra</text></g></g><g transform="translate(-38,-118) scale(1,1)"><path fill="#C0C0C0" stroke="none" d="M 631 655.5 C 631 635.3416048 663.2354944 619 703 619 C 742.7645056 619 775 635.3416048 775 655.5 C 775 675.6583952 742.7645056 692 703 692 C 663.2354944 692 631 675.6583952 631 655.5 Z" opacity="0.2"/></g><g transform="translate(-38,-118) scale(1,1)"><path fill="#ffffff" stroke="none" d="M 624 648.5 C 624 628.3416048 656.2354944 612 696 612 C 735.7645056 612 768 628.3416048 768 648.5 C 768 668.6583952 735.7645056 685 696 685 C 656.2354944 685 624 668.6583952 624 648.5 Z"/></g><g transform="translate(-38,-118) scale(1,1)"><path fill="none" stroke="#000000" d="M 624 648.5 C 624 628.3416048 656.2354944 612 696 612 C 735.7645056 612 768 628.3416048 768 648.5 C 768 668.6583952 735.7645056 685 696 685 C 656.2354944 685 624 668.6583952 624 648.5 Z" stroke-miterlimit="10"/></g><g transform="translate(-38,-118) scale(1,1)"><g><path fill="none" stroke="none"/><text fill="#000000" stroke="none" font-family="Arial" font-size="13px" font-style="normal" font-weight="bold" text-decoration="none" x="652.997802734375" y="647.5">Jouer avec sa</text><text fill="#000000" stroke="none" font-family="Arial" font-size="13px" font-style="normal" font-weight="bold" text-decoration="none" x="676.49365234375" y="660.5">souris</text></g></g><g transform="translate(-38,-118) scale(1,1)"><path fill="none" stroke="#000000" d="M 145 631 L 248 536 L 352 493" stroke-miterlimit="10"/></g><g transform="translate(-38,-118) scale(1,1)"><path fill="none" stroke="#000000" d="M 344.2168329310077 500.7731789105972 L 352 493 L 341.0000022673481 492.99293730546725" stroke-miterlimit="10"/></g><g transform="translate(-38,-118) scale(1,1)"><path fill="none" stroke="#000000" d="M 432 493 L 432 527" stroke-miterlimit="10" stroke-dasharray="3"/></g><g transform="translate(-38,-118) scale(1,1)"><path fill="none" stroke="#000000" d="M 427.790482243984 516.8373251423759 L 432 527 L 436.209517756016 516.8373251423759" stroke-miterlimit="10"/></g><g transform="translate(-38,-118) scale(1,1)"><g><path fill="none" stroke="none"/><text fill="#000000" stroke="none" font-family="Arial" font-size="13px" font-style="normal" font-weight="normal" text-decoration="none" x="433.5" y="514">«include»</text></g></g><g transform="translate(-38,-118) scale(1,1)"><path fill="none" stroke="#000000" d="M 696 611 L 696 560 L 529 557" stroke-miterlimit="10"/></g><g transform="translate(-38,-118) scale(1,1)"><path fill="#FFFFFF" stroke="none" d="M 549.473286695167 548.9473897463308 L 529 557 L 549.1708551719507 565.7827445387071"/></g><g transform="translate(-38,-118) scale(1,1)"><path fill="none" stroke="#000000" d="M 549.473286695167 548.9473897463308 L 529 557 L 549.1708551719507 565.7827445387071 L 549.473286695167 548.9473897463308" stroke-miterlimit="10"/></g><g transform="translate(-38,-118) scale(1,1)"><path fill="none" stroke="#000000" d="M 848 611 L 848 560 L 529 556" stroke-miterlimit="10"/></g><g transform="translate(-38,-118) scale(1,1)"><path fill="#FFFFFF" stroke="none" d="M 549.4293115596153 547.8364695627338 L 529 556 L 549.2181924693904 564.6732170081629"/></g><g transform="translate(-38,-118) scale(1,1)"><path fill="none" stroke="#000000" d="M 549.4293115596153 547.8364695627338 L 529 556 L 549.2181924693904 564.6732170081629 L 549.4293115596153 547.8364695627338" stroke-miterlimit="10"/></g><g transform="translate(-38,-118) scale(1,1)"><path fill="none" stroke="#000000" d="M 1000 611 L 1000 560 L 529 556" stroke-miterlimit="10"/></g><g transform="translate(-38,-118) scale(1,1)"><path fill="#FFFFFF" stroke="none" d="M 549.3961134466554 547.7538762881483 L 529 556 L 549.2531201231337 564.5913401328266"/></g><g transform="translate(-38,-118) scale(1,1)"><path fill="none" stroke="#000000" d="M 549.3961134466554 547.7538762881483 L 529 556 L 549.2531201231337 564.5913401328266 L 549.3961134466554 547.7538762881483" stroke-miterlimit="10"/></g><g transform="translate(-38,-118) scale(1,1)"><path fill="none" stroke="#000000" d="M 800 426 L 800 456 L 574 458" stroke-miterlimit="10"/></g><g transform="translate(-38,-118) scale(1,1)"><path fill="#FFFFFF" stroke="none" d="M 594.2500520536727 449.40143082696034 L 574 458 L 594.3990556972905 466.2388425557745"/></g><g transform="translate(-38,-118) scale(1,1)"><path fill="none" stroke="#000000" d="M 594.2500520536727 449.40143082696034 L 574 458 L 594.3990556972905 466.2388425557745 L 594.2500520536727 449.40143082696034" stroke-miterlimit="10"/></g><g transform="translate(-38,-118) scale(1,1)"><path fill="none" stroke="#000000" d="M 756 351 L 696 301" stroke-miterlimit="10" stroke-dasharray="3"/></g><g transform="translate(-38,-118) scale(1,1)"><path fill="none" stroke="#000000" d="M 706.5020506807682 304.27214478569897 L 696 301 L 701.112315485744 310.7398270197279" stroke-miterlimit="10"/></g><g transform="translate(-38,-118) scale(1,1)"><g><path fill="none" stroke="none"/><text fill="#000000" stroke="none" font-family="Arial" font-size="13px" font-style="normal" font-weight="normal" text-decoration="none" x="654.5" y="355">«extend»</text></g></g><g transform="translate(-38,-118) scale(1,1)"><path fill="#C0C0C0" stroke="none" d="M 299 773 C 299 755.3268864 361.9039856 741 439.5 741 C 517.0960144000001 741 580 755.3268864 580 773 C 580 790.6731136 517.0960144000001 805 439.5 805 C 361.9039856 805 299 790.6731136 299 773 Z" opacity="0.2"/></g><g transform="translate(-38,-118) scale(1,1)"><path fill="#ffffff" stroke="none" d="M 292 766 C 292 748.3268864 354.9039856 734 432.5 734 C 510.0960144 734 573 748.3268864 573 766 C 573 783.6731136 510.0960144 798 432.5 798 C 354.9039856 798 292 783.6731136 292 766 Z"/></g><g transform="translate(-38,-118) scale(1,1)"><path fill="none" stroke="#000000" d="M 292 766 C 292 748.3268864 354.9039856 734 432.5 734 C 510.0960144 734 573 748.3268864 573 766 C 573 783.6731136 510.0960144 798 432.5 798 C 354.9039856 798 292 783.6731136 292 766 Z" stroke-miterlimit="10"/></g><g transform="translate(-38,-118) scale(1,1)"><g><path fill="none" stroke="none"/><text fill="#000000" stroke="none" font-family="Arial" font-size="13px" font-style="normal" font-weight="bold" text-decoration="none" x="341.242919921875" y="771.5">Voir son historique de parties</text></g></g><g transform="translate(-38,-118) scale(1,1)"><path fill="none" stroke="#000000" d="M 125 631 L 240 440 L 355 391" stroke-miterlimit="10"/></g><g transform="translate(-38,-118) scale(1,1)"><path fill="none" stroke="#000000" d="M 347.3007164644753 398.8562734829942 L 355 391 L 344.00056014707127 391.1110086564338" stroke-miterlimit="10"/></g><g transform="translate(-38,-118) scale(1,1)"><path fill="none" stroke="#000000" d="M 523 325 L 589 301" stroke-miterlimit="10" stroke-dasharray="3"/></g><g transform="translate(-38,-118) scale(1,1)"><path fill="none" stroke="#000000" d="M 580.8877584958122 308.42910073816034 L 589 301 L 578.0106115116947 300.5169465318371" stroke-miterlimit="10"/></g><g transform="translate(-38,-118) scale(1,1)"><g><path fill="none" stroke="none"/><text fill="#000000" stroke="none" font-family="Arial" font-size="13px" font-style="normal" font-weight="normal" text-decoration="none" x="518.5" y="289">«extend»</text></g></g><g transform="translate(-38,-118) scale(1,1)"><path fill="none" stroke="#000000" d="M 432 325 L 432 265" stroke-miterlimit="10" stroke-dasharray="3"/></g><g transform="translate(-38,-118) scale(1,1)"><path fill="none" stroke="#000000" d="M 436.209517756016 275.16267485762415 L 432 265 L 427.790482243984 275.16267485762415" stroke-miterlimit="10"/></g><g transform="translate(-38,-118) scale(1,1)"><g><path fill="none" stroke="none"/><text fill="#000000" stroke="none" font-family="Arial" font-size="13px" font-style="normal" font-weight="normal" text-decoration="none" x="375.5" y="299">«extend»</text></g></g><g transform="translate(-38,-118) scale(1,1)"><path fill="none" stroke="#000000" d="M 156 670 L 291 667" stroke-miterlimit="10"/></g><g transform="translate(-38,-118) scale(1,1)"><path fill="none" stroke="#000000" d="M 280.9333552659034 671.4342602311418 L 291 667 L 280.74631176573826 663.0173027237106" stroke-miterlimit="10"/></g><g transform="translate(-38,-118) scale(1,1)"><path fill="none" stroke="#000000" d="M 156 710 L 260 784 L 364 835" stroke-miterlimit="10"/></g><g transform="translate(-38,-118) scale(1,1)"><path fill="none" stroke="#000000" d="M 353.0219795434202 834.3049698892023 L 364 835 L 356.7288277956216 826.7459067866739" stroke-miterlimit="10"/></g><g transform="translate(-38,-118) scale(1,1)"><path fill="none" stroke="#000000" d="M 133 712 L 264 880 L 370 937" stroke-miterlimit="10"/></g><g transform="translate(-38,-118) scale(1,1)"><path fill="none" stroke="#000000" d="M 359.0557029589485 935.8943950627684 L 370 937 L 363.0429940953824 928.4794325985227" stroke-miterlimit="10"/></g><g transform="translate(-38,-118) scale(1,1)"><path fill="none" stroke="#000000" d="M 156 687 L 317 733" stroke-miterlimit="10"/></g><g transform="translate(-38,-118) scale(1,1)"><path fill="none" stroke="#000000" d="M 306.07190128647034 734.2556506310877 L 317 733 L 308.38478821814385 726.1605463702306" stroke-miterlimit="10"/></g><g transform="translate(-38,-118) scale(1,1)"><path fill="#C0C0C0" stroke="none" d="M 922 250.5 C 922 230.8938896 954.2354944 215 994 215 C 1033.7645056 215 1066 230.8938896 1066 250.5 C 1066 270.1061104 1033.7645056 286 994 286 C 954.2354944 286 922 270.1061104 922 250.5 Z" opacity="0.2"/></g><g transform="translate(-38,-118) scale(1,1)"><path fill="#ffffff" stroke="none" d="M 915 243.5 C 915 223.8938896 947.2354944 208 987 208 C 1026.7645056 208 1059 223.8938896 1059 243.5 C 1059 263.1061104 1026.7645056 279 987 279 C 947.2354944 279 915 263.1061104 915 243.5 Z"/></g><g transform="translate(-38,-118) scale(1,1)"><path fill="none" stroke="#000000" d="M 915 243.5 C 915 223.8938896 947.2354944 208 987 208 C 1026.7645056 208 1059 223.8938896 1059 243.5 C 1059 263.1061104 1026.7645056 279 987 279 C 947.2354944 279 915 263.1061104 915 243.5 Z" stroke-miterlimit="10"/></g><g transform="translate(-38,-118) scale(1,1)"><g><path fill="none" stroke="none"/><text fill="#000000" stroke="none" font-family="Arial" font-size="13px" font-style="normal" font-weight="bold" text-decoration="none" x="957.3818359375" y="236">Choisir le</text><text fill="#000000" stroke="none" font-family="Arial" font-size="13px" font-style="normal" font-weight="bold" text-decoration="none" x="957.016845703125" y="249">niveau de</text><text fill="#000000" stroke="none" font-family="Arial" font-size="13px" font-style="normal" font-weight="bold" text-decoration="none" x="959.917724609375" y="262">difficulté</text></g></g><g transform="translate(-38,-118) scale(1,1)"><path fill="none" stroke="#000000" d="M 987 351 L 987 280" stroke-miterlimit="10" stroke-dasharray="3"/></g><g transform="translate(-38,-118) scale(1,1)"><path fill="none" stroke="#000000" d="M 991.209517756016 290.16267485762415 L 987 280 L 982.790482243984 290.16267485762415" stroke-miterlimit="10"/></g><g transform="translate(-38,-118) scale(1,1)"><g><path fill="none" stroke="none"/><text fill="#000000" stroke="none" font-family="Arial" font-size="13px" font-style="normal" font-weight="normal" text-decoration="none" x="929.5" y="319">«include»</text></g></g><g transform="translate(-38,-118) scale(1,1)"><path fill="none" stroke="#000000" d="M 985 426 L 984 456 L 574 459" stroke-miterlimit="10"/></g><g transform="translate(-38,-118) scale(1,1)"><path fill="#FFFFFF" stroke="none" d="M 594.2632045821135 450.43247176465616 L 574 459 L 594.3864066818016 467.27009205536393"/></g><g transform="translate(-38,-118) scale(1,1)"><path fill="none" stroke="#000000" d="M 594.2632045821135 450.43247176465616 L 574 459 L 594.3864066818016 467.27009205536393 L 594.2632045821135 450.43247176465616" stroke-miterlimit="10"/></g></g></svg>